<?xml version="1.0" encoding="UTF-8"?><svg id="Layer_2" xmlns="http://www.w3.org/2000/svg" viewBox="0 0 298.14 307.68"><defs><style>.cls-1{fill:#fff;}</style></defs><g id="Layer_1-2"><path class="cls-1" d="m290.77,116c2.39,7.52,4.99,14.98,5.89,22.9.98,8.59,1.71,17.19,1.42,25.84-.25,7.6-.94,15.18-2.37,22.63-9.17,47.56-35.5,82.18-78.78,103.86-16.14,8.09-33.27,13.11-51.18,15.39-21.23,2.71-41.92.07-62.23-6.4-11.55-3.68-22.57-8.53-32.91-14.87-1.53-.94-3.47-1.37-4.35-3.22-.08-.18-.36-.31-.57-.37-2.8-.74-4.89-2.68-7.15-4.3-19.35-13.95-34.74-31.31-45.33-52.79-3.15-6.39-5.73-13.01-7.98-19.77-1.23-3.7-2.7-7.36-2.99-11.27-.35-4.72-.96-9.37-2.2-13.94-.15-.56.09-1.47.49-1.89.65-.68,1.49-.24,2.16.26.32.23.59.54.86.83,7.54,8.38,16.54,14.81,26.56,19.84,9.23,4.64,18.78,8.5,28.84,10.99,8,1.98,16.13,2.3,24.3,1.58,5.29-.47,9.77,1.08,13.41,4.97.33.35.66.7.95,1.08,9.68,12.39,22.71,19.53,37.63,23.29,14.53,3.66,28.75,1.6,42.51-3.89,9.34-3.72,17.41-9.42,24.55-16.46,3.13-3.09,6.15-6.29,9.22-9.44.68-.7,1.22-1.35,1.06-2.5-.1-.71.32-1.54.64-2.25,1.62-3.65,3.37-7.25,4.91-10.94.83-1.99,2.15-3.2,4.13-4.02,12.19-5.06,23.34-11.85,33.57-20.22,13.85-11.33,23.73-25.38,29.71-42.22,1.26-3.54,2.58-7.06,3.87-10.58.27-.72.56-1.44.84-2.16.17,0,.34.02.51.03Z"/><path class="cls-1" d="m143.35,94.97c.46-.81.99-1.58,1.36-2.42,3.62-8.13,6.55-16.51,7.87-25.33,2.09-13.95,1.52-27.91-.77-41.79-.95-5.75-2.18-11.46-3.23-17.19-.32-1.73-.51-3.48-.69-5.23-.09-.84-.02-1.7-.02-3,.96.35,1.62.41,2.02.77,1.19,1.06,2.48,2.09,3.38,3.38,7.33,10.49,14.71,20.93,20.9,32.16,6.52,11.82,9.84,24.48,9.69,37.9-.14,12.39-3.63,23.96-10.3,34.48-1.38,2.17-2.42,2.64-4.83,1.98-9.25-2.52-18.64-2.76-28.08-1.7-2.91.33-5.77,1.23-8.63,1.94-2.44.6-3.24.5-4.5-1.5-5.94-9.35-9.96-19.34-9.4-30.67.35-7.1,2.29-13.85,4.91-20.42,2.94-7.39,6.87-14.25,11.31-20.83,2.6-3.84,5.3-7.61,7.95-11.42.18-.26.32-.59.57-.77.42-.3.91-.5,1.37-.75.2.54.62,1.12.55,1.63-.54,3.8-1.13,7.59-1.8,11.36-1.8,10.08-3.45,20.16-3.36,30.46.07,8.23-.19,16.48,2.15,24.51.24.81.58,1.59.87,2.38.24.02.47.04.71.06Z"/><path class="cls-1" d="m65.44,41.72c1.28-.03,1.92.78,1.6,1.74-.77,2.35-1.48,4.73-2.41,7.02-2.2,5.36-3.69,10.86-4.3,16.64-.95,8.97-.91,17.87,1,26.72,2.85,13.21,9.38,24.39,18.84,33.9,2.93,2.94,6.09,5.66,9.23,8.38,3.05,2.63,3.14,2.75,1.22,6.39-2.98,5.66-5.84,11.39-7.5,17.61-.51,1.91-.7,3.91-1.05,5.87-.24,1.33-.34,2.71-.8,3.97-.63,1.74-1.48,2.11-3.17,1.32-3.62-1.68-7.28-3.33-10.75-5.3-15.79-8.94-27.33-21.67-34-38.65-2.45-6.25-3.9-12.67-3.17-19.45.05-.48.07-.96.04-1.44-.72-11.51,2.42-22.12,7.46-32.32,6.22-12.59,15.27-22.78,26.19-31.44.55-.44,1.2-.75,1.57-.97Z"/><path class="cls-1" d="m2.24,137.01c.19-10.71,2.66-20.92,6.54-30.81,1.89-4.83,4.12-9.53,6.2-14.29.1-.22.16-.5.33-.63.4-.32.91-.84,1.27-.76.4.09.85.68.99,1.15.2.67.15,1.42.2,2.13.75,10.63,1.86,21.24,5.9,31.19,9.05,22.26,24.51,38.49,46.5,48.37,2.03.91,4.18,1.6,6.31,2.28,3.65,1.16,5.11,3.75,5.28,7.41.11,2.31.19,4.68.78,6.9,1.07,4,2.5,7.9,3.81,11.84.28.83.71,1.61,1.02,2.43.9,2.41.43,3.05-2.06,3.11-7.48.17-14.83-.75-22.11-2.39-8.21-1.85-16.24-4.19-23.73-8.14-10.83-5.71-19.65-13.66-26.59-23.71-5.81-8.42-8.77-17.88-10-27.93-.33-2.69-.43-5.41-.63-8.12Z"/><path class="cls-1" d="m183.72,115.38c.65-.72,1.21-1.38,1.81-2,5.4-5.58,10.6-11.31,14.45-18.14,5.79-10.27,8.07-21.22,7.08-32.97-1.2-14.31-6.85-26.67-16.1-37.45-2.9-3.38-6.25-6.39-9.41-9.55-.22-.22-.59-.28-.88-.41.1-.16.21-.32.31-.49.27-.02.56-.13.8-.06,16.09,4.51,30.41,12.08,41.83,24.53,10.31,11.24,15.91,24.52,17.07,39.74,1.53,20.11-4.98,37.4-18.12,52.4-2.74,3.12-5.7,6.05-8.59,9.04-1.69,1.74-2.32,1.7-3.74-.29-3.16-4.44-6.64-8.61-10.58-12.38-4.06-3.89-8.53-7.24-13.43-10-.63-.35-1.24-.73-1.84-1.13-.19-.12-.3-.36-.69-.85Z"/><path class="cls-1" d="m220.15,187.35c.14-2.09.32-3.98.37-5.88.21-7.44.11-14.89-1.44-22.2-.57-2.71-1.68-5.33-2.75-7.9-1.34-3.21-1.17-4.47,1.66-6.58,5.2-3.89,10.11-8.1,14.53-12.87,11.08-11.96,17.88-26,20.28-42.13.99-6.67.97-13.4.33-20.1-.37-3.81-.99-7.6-1.47-11.4-.04-.34.06-.94.27-1.03.37-.16.91-.13,1.31,0,.35.12.64.47.9.77,8.56,9.47,15.79,19.82,19.52,32.14,7.69,25.41,3.21,48.5-13.9,68.97-8.7,10.41-19.47,18.2-31.35,24.56-2.11,1.13-4.27,2.19-6.42,3.23-.47.23-1.04.24-1.84.41Z"/><path class="cls-1" d="m71.92,84.11c1.09-15.16,4.82-29,13.28-41.24,9.28-13.43,21.71-23.09,36.52-29.78.8-.36,1.62-.75,2.47-.9.63-.11,1.58-.05,1.9.34.29.35.1,1.35-.19,1.89-2.79,5.21-5.79,10.31-8.45,15.58-6.81,13.46-10.09,27.79-9.24,42.85.77,13.6,4.85,26.18,13.3,37.11.15.19.3.37.44.57,1.63,2.22,1.47,3.13-.93,4.58-3.15,1.9-6.45,3.57-9.45,5.67-3.46,2.42-6.74,5.11-9.97,7.84-2.2,1.86-2.94,2.03-5.09.1-5.47-4.94-10.56-10.24-14.69-16.39-3.83-5.7-6.53-11.88-7.93-18.62-.47-2.27-1.1-4.5-1.59-6.76-.23-1.09-.3-2.21-.39-2.84Z"/><path class="cls-1" d="m112.03,221.74c2.63-2.41,5.36-3.9,8.31-4.9,2.34-.79,4.78-1.27,7.15-1.99,2.74-.83,5.57-1.53,8.16-2.72,6.57-3.02,9-8.31,7.35-15.33-.09-.39-.21-.77-.33-1.15-1.55-5.1-3.32-6.44-8.61-6.53-.48,0-.96-.03-1.44-.04-2.26-.07-3.84-1.14-4.41-3.35-.58-2.24-1.1-4.5-1.43-6.78-.31-2.17-.68-4.25-2.11-6.01-.86-1.05-.63-2.06.2-3.02.89-1.03,1.84-2.01,2.64-3.1,1.82-2.49,2.33-5.26,1.26-8.17-.55-1.5-.31-2.77.32-4.13,1.47-3.16,3.89-5.25,7.09-6.43,5.44-2,11.08-2.73,16.73-1.3,7.73,1.96,13.34,6.47,15.38,14.5.92,3.63.61,7.33-.5,10.89-1.02,3.28-2.2,6.5-3.35,9.74-2.36,6.65-3.32,13.45-2.62,20.51.5,5.07,2.9,8.77,7.54,10.83,2.4,1.06,4.93,1.84,7.45,2.58,4.09,1.2,8,2.77,11.62,5.03.51.32.97.73,1.67,1.26-.78.62-1.36,1.13-1.99,1.58-6.07,4.35-12.91,6.19-20.3,6.15-13.43-.07-26.86-.23-40.29-.27-3,0-5.69-.77-8.11-2.47-2.41-1.69-4.76-3.45-7.39-5.36Z"/><path class="cls-1" d="m179.86,199.59c-1.16-1.26-2.1-2.53-3.27-3.51-1.22-1.02-2.69-1.72-4-2.64-4.52-3.18-5.64-6.25-4.12-11.6.78-2.76,1.79-5.46,2.6-8.22,1.35-4.62,1.58-9.26.21-13.94-1.92-6.54-5.76-11.54-11.85-14.67-4.08-2.09-8.35-3.91-13.05-3.34-3.87.47-7.67,1.47-11.49,2.27-.82.17-1.63.97-2.4.05-.88-1.06-.19-2,.48-2.78,1.5-1.77,3.01-3.53,4.64-5.18,4.69-4.73,8.89-9.84,12.32-15.57.12-.21.25-.41.39-.6,1.49-2.07,2.93-2.04,3.83.28,3.49,8.92,9.35,16.13,16.21,22.61,6.8,6.42,8.97,14.39,7.59,23.38-.59,3.84-1.91,7.57-2.87,11.35-.47,1.85-1.05,3.69-1.26,5.58-.36,3.21.86,5.94,3.02,8.29.81.88,1.65,1.76,2.3,2.75,1.08,1.65,1.36,3.47.74,5.5Z"/></g></svg>